<svg width="15" height="15" viewBox="0 0 15 15" fill="none" xmlns="http://www.w3.org/2000/svg">
<g clip-path="url(#clip0)">
<path d="M12.8059 2.19417C9.88041 -0.731308 5.11975 -0.731308 2.19427 2.19417C-0.731504 5.11993 -0.731504 9.88 2.19427 12.8058C3.65687 14.2684 5.57862 15.0002 7.50008 15.0002C9.42155 15.0002 11.343 14.2686 12.8059 12.8058C15.7314 9.88 15.7314 5.11964 12.8059 2.19417ZM2.60234 2.60224C3.95268 1.25191 5.72638 0.576599 7.50008 0.576599C9.18317 0.576599 10.8619 1.19246 12.1834 2.4083L2.40869 12.183C-0.0885154 9.46933 -0.0290648 5.23364 2.60234 2.60224ZM12.3978 12.3974C9.76613 15.0291 5.53071 15.0885 2.81677 12.5911L12.5915 2.81667C15.089 5.53031 15.0295 9.76601 12.3978 12.3974Z" fill="#918F8F"/>
</g>
<defs>
<clipPath id="clip0">
<rect width="15" height="15" fill="white"/>
</clipPath>
</defs>
</svg>
