<svg width="20" height="20" viewBox="0 0 20 20" fill="none" xmlns="http://www.w3.org/2000/svg">
<path d="M7.54822 12.876L7.24136 14.6985C7.19954 14.9477 7.30177 15.1988 7.50575 15.3475C7.71006 15.4959 7.98134 15.5157 8.20455 15.3988L9.84315 14.5434L11.4817 15.3989C11.5787 15.4492 11.6849 15.4746 11.79 15.4746C11.9277 15.4746 12.065 15.4315 12.1809 15.3477C12.385 15.199 12.4876 14.9479 12.4454 14.6987L12.1389 12.8761L13.4583 11.5819C13.6387 11.4051 13.703 11.1414 13.6256 10.9014C13.5479 10.6615 13.3399 10.4859 13.0902 10.449L11.2619 10.1779L10.4384 8.52278C10.3268 8.29684 10.0954 8.15375 9.84299 8.15375C9.5911 8.15375 9.35987 8.29684 9.24723 8.52278L8.42456 10.1779L6.59624 10.4488C6.34611 10.4857 6.13908 10.6613 6.06121 10.9012C5.98333 11.1412 6.04743 11.4053 6.22817 11.5817L7.54822 12.876Z" fill="#AA2526"/>
<path d="M17.7009 2.1262H15.6074V0.964956C15.6074 0.432003 15.1754 0 14.6423 0H14.4892C13.9563 0 13.5244 0.432003 13.5244 0.964956V2.1262H6.13793V0.964956C6.13793 0.432003 5.70593 0 5.17314 0H5.01995C4.487 0 4.05515 0.432003 4.05515 0.964956V2.1262H1.98599C0.891086 2.1262 0 3.01697 0 4.1122V18.014C0 19.1086 0.891086 20 1.98599 20H17.7011C18.7958 20 19.6871 19.1088 19.6871 18.014V4.1122C19.6869 3.01697 18.7956 2.1262 17.7009 2.1262ZM17.4418 17.7549H2.2451V6.9332H17.4418V17.7549Z" fill="#AA2526"/>
</svg>
