<svg width="21" height="20" viewBox="0 0 21 20" fill="none" xmlns="http://www.w3.org/2000/svg">
<path d="M10.0001 10.6816C12.9348 10.6816 15.3634 8.34284 15.3634 5.36325C15.3634 2.38367 12.9348 0 10.0001 0C7.06541 0 4.63684 2.33877 4.63684 5.31836C4.63684 8.29794 7.06541 10.6816 10.0001 10.6816ZM10.0001 1.66122C12.0409 1.66122 13.7021 3.32244 13.7021 5.32244C13.7021 7.32243 12.0409 8.97957 10.0001 8.97957C7.95929 8.97957 6.29806 7.31835 6.29806 5.31836C6.29806 3.31836 7.95929 1.66122 10.0001 1.66122Z" fill="#292929"/>
<path d="M13.6163 11.1919C13.5306 11.1511 6.46938 11.1511 6.38367 11.1919C2.5102 12.4694 0 15.6164 0 19.147C0 19.6164 0.383673 20 0.853061 20H19.151C19.6204 20 20.0041 19.6164 20.0041 19.147C20 15.6164 17.4898 12.4694 13.6163 11.1919ZM1.74286 18.3388C2.08163 15.9143 4 13.7837 6.76326 12.849H9.14693H9.60089C9.60089 12.849 9.53265 12.849 10.002 12.849C10.4714 12.849 10.6023 12.849 11.2299 12.849H13.2367C16.0449 13.8286 17.9592 15.9143 18.302 18.3388H1.74286Z" fill="#292929"/>
</svg>
