<svg width="22" height="20" viewBox="0 0 22 20" fill="none" xmlns="http://www.w3.org/2000/svg">
<path d="M17.4388 11.5387H1.22392C0.547621 11.5387 0 12.0702 0 12.7257C0 13.3809 0.547621 13.9127 1.22392 13.9127H17.4388C18.1151 13.9127 18.6627 13.3807 18.6627 12.7257C18.663 12.0702 18.1151 11.5387 17.4388 11.5387ZM1.22392 2.3763H13.7687C14.4444 2.3763 14.9924 1.84425 14.9924 1.18699C14.9924 0.531752 14.4444 0 13.7687 0H1.22392C0.547621 0 0 0.531752 0 1.18728C0 1.84454 0.547621 2.3763 1.22392 2.3763ZM11.32 17.626H1.22392C0.547621 17.626 0 18.1575 0 18.8127C0 19.468 0.547621 20 1.22392 20H11.32C11.9963 20 12.5439 19.468 12.5439 18.8127C12.5439 18.1575 11.9963 17.626 11.32 17.626ZM19.8872 5.60114H1.22392C0.547621 5.60114 0 6.1329 0 6.78814C0 7.44338 0.547621 7.97513 1.22392 7.97513H19.8872C20.5632 7.97513 21.1111 7.44338 21.1111 6.78814C21.1111 6.1329 20.5632 5.60114 19.8872 5.60114Z" fill="#292929"/>
</svg>
