<svg width="21" height="20" viewBox="0 0 21 20" fill="none" xmlns="http://www.w3.org/2000/svg">
<path d="M19.3607 7.40359H17.7851C17.6573 7.10662 17.5706 6.8509 17.4428 6.59517L18.5482 5.48979C18.841 5.19695 18.9276 4.67725 18.5482 4.29779L15.9084 1.65807C15.5661 1.31574 15.0588 1.31574 14.7164 1.65807L13.6111 2.76346C13.3553 2.63559 13.0584 2.50773 12.8026 2.42112V0.84966C12.8026 0.383584 12.4191 0 11.953 0H8.25325C7.78718 0 7.40359 0.383584 7.40359 0.84966V2.21077C7.10662 2.33863 6.8509 2.42524 6.59518 2.5531L5.48979 1.44772C5.14746 1.10538 4.64013 1.10538 4.29779 1.44772L1.65807 4.08744C1.31574 4.42978 1.31574 4.9371 1.65807 5.27944L2.76346 6.38482C2.6356 6.64054 2.50773 6.93751 2.42112 7.19324H0.84966C0.383584 7.19324 0 7.57682 0 8.0429V11.7426C0 12.2087 0.383584 12.5923 0.84966 12.5923H2.33863C2.46649 12.8893 2.5531 13.145 2.68097 13.4007L1.57558 14.5061C1.23324 14.8484 1.23324 15.3557 1.57558 15.6981L4.2153 18.3378C4.702 18.8245 5.2382 18.5069 5.4073 18.3378L6.51268 17.2324C6.76841 17.3603 7.06538 17.4881 7.3211 17.5748V19.1503C7.3211 19.6164 7.70468 20 8.17076 20H11.8705C12.2953 20 12.6789 19.6164 12.8068 19.3607V17.7851C13.1037 17.6572 13.3595 17.5706 13.6152 17.4428L14.7206 18.5482C15.0629 18.8451 15.6156 18.8451 15.9126 18.5482L18.5523 15.9084C18.8946 15.5661 18.8946 15.0588 18.5523 14.7164L17.4469 13.6111C17.5748 13.3553 17.7026 13.0584 17.7892 12.8026H19.3648C19.8309 12.8026 20.2145 12.4191 20.2145 11.953V8.25325C20.2104 7.78717 19.8268 7.40359 19.3607 7.40359ZM18.3378 11.0208H17.0179C16.6344 11.0208 16.2961 11.2766 16.2095 11.6601C16.0817 12.2128 15.8672 12.7243 15.5702 13.2357C15.3557 13.5781 15.4424 14.0029 15.6981 14.2586L16.6344 15.1949L15.1866 16.6426L14.2504 15.7063C13.9534 15.4506 13.5698 15.4094 13.2275 15.5785C12.7614 15.8342 12.2046 16.0899 11.6519 16.2178C11.2683 16.3044 11.0126 16.6426 11.0126 17.0262V18.3461H8.97093V17.0262C8.97093 16.6426 8.7152 16.3044 8.33162 16.2178C7.77893 16.0899 7.26748 15.8754 6.75603 15.5785C6.4137 15.364 5.98887 15.4506 5.73314 15.7063L4.79687 16.6426L3.34915 15.1949L4.28542 14.2586C4.54114 13.9616 4.58239 13.5781 4.41328 13.2357C4.15756 12.7696 3.90184 12.2128 3.77398 11.6601C3.68736 11.2766 3.34915 11.0208 2.96556 11.0208H1.6457V8.97917H2.96556C3.34915 8.97917 3.68736 8.72345 3.77398 8.33986C3.90184 7.78717 4.11631 7.27573 4.41328 6.76428C4.62776 6.42194 4.54114 5.99711 4.28542 5.74139L3.34915 4.80511L4.79687 3.35739L5.73314 4.29367C6.03011 4.54939 6.4137 4.59064 6.75603 4.42153C7.22211 4.16581 7.77893 3.91008 8.33162 3.78222C8.7152 3.69561 8.97093 3.35739 8.97093 2.97381V1.65395H11.0126V2.97381C11.0126 3.35739 11.2683 3.69561 11.6519 3.78222C12.2046 3.91008 12.716 4.12456 13.2275 4.42153C13.5698 4.63601 13.9946 4.54939 14.2504 4.29367L15.1866 3.35739L16.6344 4.80511L15.6981 5.74139C15.4424 6.03836 15.4011 6.42194 15.5702 6.76428C15.8259 7.23036 16.0817 7.78717 16.2095 8.33986C16.2961 8.72345 16.6344 8.97917 17.0179 8.97917H18.3378V11.0208Z" fill="#292929"/>
<path d="M9.9979 5.36194C7.49017 5.36194 5.40314 7.44484 5.40314 9.99794C5.40314 12.5098 7.4448 14.5927 9.9979 14.5927C12.551 14.5927 14.5927 12.551 14.5927 9.99794C14.5927 7.44484 12.551 5.36194 9.9979 5.36194ZM9.9979 12.9346C8.38107 12.9346 7.06121 11.6148 7.06121 9.99794C7.06121 8.38111 8.38107 7.06126 9.9979 7.06126C11.6147 7.06126 12.9346 8.38111 12.9346 9.99794C12.9346 11.6148 11.6147 12.9346 9.9979 12.9346Z" fill="#292929"/>
</svg>
